<svg xmlns="http://www.w3.org/2000/svg" viewBox="0 0 150.67 22.65"><defs><style>.cls-1{fill:#f2f2f2;}.cls-2{fill:#ffa943;}</style></defs><g id="Camada_2" data-name="Camada 2"><g id="Camada_1-2" data-name="Camada 1"><path class="cls-1" d="M6.61,14.31l.14-.56H8a9.25,9.25,0,0,0,3.5-.58,5.61,5.61,0,0,0,2.29-1.61,6.38,6.38,0,0,0,1.26-2.39,10.22,10.22,0,0,0,.4-2.93,3.28,3.28,0,0,0-.83-2.45A3.86,3.86,0,0,0,11.9,3a2.46,2.46,0,0,0-1.74.49A4.39,4.39,0,0,0,9.27,5.4L5.57,19.29a7.5,7.5,0,0,0-.25,1.39.75.75,0,0,0,.38.75,3.49,3.49,0,0,0,1.52.27l-.11.56c-.43,0-1-.06-1.57-.07h-4c-.66,0-1.18,0-1.57.07l.11-.56a6.77,6.77,0,0,0,1.49-.22,1.55,1.55,0,0,0,.84-.68A5.81,5.81,0,0,0,3,19.29L6.69,5.4A4.9,4.9,0,0,0,6.93,4a.83.83,0,0,0-.43-.76A3.35,3.35,0,0,0,5,3l.14-.56,1.54.05,1.9,0c.68,0,1.35,0,2,0s1.37,0,2.06,0a6.34,6.34,0,0,1,4.2,1.17,3.78,3.78,0,0,1,1.37,3.06A6.21,6.21,0,0,1,17,10.6a8.77,8.77,0,0,1-3.71,2.71,14,14,0,0,1-5.51,1Z"/><path class="cls-1" d="M19.49,15.9c1-.35,2-.7,2.84-1.05a8.4,8.4,0,0,0,2-1.1,6.19,6.19,0,0,0,1.6-2,5.49,5.49,0,0,0,.58-2.52,2.83,2.83,0,0,0-.11-1A.34.34,0,0,0,26.1,8,3,3,0,0,0,24.19,9a10.45,10.45,0,0,0-2,2.52A17.18,17.18,0,0,0,20.71,15a12.42,12.42,0,0,0-.61,3.84,3.16,3.16,0,0,0,.54,2.06,1.73,1.73,0,0,0,1.4.63,4.4,4.4,0,0,0,2.12-.62,6.73,6.73,0,0,0,2.19-2.18l.45.22a9.08,9.08,0,0,1-1.4,1.79,7.74,7.74,0,0,1-1.95,1.42,5,5,0,0,1-2.28.54,3.65,3.65,0,0,1-2.7-1,4,4,0,0,1-1-3,9.5,9.5,0,0,1,.45-2.7,15.07,15.07,0,0,1,1.27-3,14.19,14.19,0,0,1,2-2.76,9.59,9.59,0,0,1,2.55-2,6.23,6.23,0,0,1,3-.75,2.32,2.32,0,0,1,1.47.46,1.64,1.64,0,0,1,.6,1.38,3.69,3.69,0,0,1-.65,2.09,7.43,7.43,0,0,1-1.74,1.76,14.43,14.43,0,0,1-2.34,1.42c-.84.41-1.66.76-2.46,1.06s-1.51.54-2.13.73Z"/><path class="cls-1" d="M32.54,22.26H30.1l3.36-12a2.86,2.86,0,0,0,.18-1.35.51.51,0,0,0-.57-.39A1.43,1.43,0,0,0,32,9.16a8.36,8.36,0,0,0-1.07,2.21l-.36,1H30l.7-2A4.1,4.1,0,0,1,32.26,8a3.52,3.52,0,0,1,1.82-.56q1.11,0,1.41.63a2.51,2.51,0,0,1,.15,1.52,17.33,17.33,0,0,1-.36,1.77ZM39.73,8.18a2.06,2.06,0,0,0-1.33.6A8,8,0,0,0,37,10.51a24.89,24.89,0,0,0-1.43,2.72c-.47,1.06-.94,2.23-1.4,3.51s-.9,2.68-1.33,4.18l.7-3.59c.62-1.83,1.19-3.37,1.73-4.62a17.94,17.94,0,0,1,1.58-3A5.79,5.79,0,0,1,38.46,8a3.27,3.27,0,0,1,1.75-.51,1.66,1.66,0,0,1,1.22.44,1.64,1.64,0,0,1,.43,1.15,2,2,0,0,1-.59,1.43,1.89,1.89,0,0,1-1.37.59,1.21,1.21,0,0,1-.8-.27.92.92,0,0,1-.32-.74A1.73,1.73,0,0,1,39.14,9a2.29,2.29,0,0,1,.9-.67.38.38,0,0,0-.13-.09Z"/><path class="cls-1" d="M42.73,21.84a1.9,1.9,0,0,0,.49.18,3.16,3.16,0,0,0,.8.07,2.9,2.9,0,0,0,2-.74,2.78,2.78,0,0,0,.79-2.14,4.72,4.72,0,0,0-.32-1.72,8.72,8.72,0,0,0-1.13-2c-.43-.59-.84-1.21-1.23-1.83a4.06,4.06,0,0,1-.59-2.23,3.61,3.61,0,0,1,1.27-2.88,4.54,4.54,0,0,1,3.07-1.09,6.53,6.53,0,0,1,1.59.19,2.72,2.72,0,0,1,1.31.72A2.13,2.13,0,0,1,51,10.84a1,1,0,0,1-1,.53,1.14,1.14,0,0,1-.79-.32,1.15,1.15,0,0,1-.33-.86,2.43,2.43,0,0,1,.2-1,4.79,4.79,0,0,1,.58-.91A2.55,2.55,0,0,0,48.3,8a2.36,2.36,0,0,0-1.74.7,2.68,2.68,0,0,0-.7,2,2.87,2.87,0,0,0,.44,1.61l1.24,1.89a18.54,18.54,0,0,1,1.18,2,4.7,4.7,0,0,1,.48,2.08,4,4,0,0,1-.66,2.28,4.53,4.53,0,0,1-1.75,1.55,5.25,5.25,0,0,1-2.41.56,5.78,5.78,0,0,1-1.82-.28,3.09,3.09,0,0,1-1.41-.88,2.28,2.28,0,0,1-.55-1.61,1.73,1.73,0,0,1,.24-.83.88.88,0,0,1,.85-.43,1,1,0,0,1,1,.55,2.57,2.57,0,0,1,.28,1.21,3.84,3.84,0,0,1-.07.8C42.81,21.42,42.76,21.63,42.73,21.84Z"/><path class="cls-1" d="M52.33,18.26a12.74,12.74,0,0,1,.53-3.41,14.68,14.68,0,0,1,1.56-3.54A9.19,9.19,0,0,1,57,8.55a5.9,5.9,0,0,1,3.47-1.07,3.74,3.74,0,0,1,2.79,1.07,4.61,4.61,0,0,1,1.05,3.32,12.61,12.61,0,0,1-.53,3.4,14.58,14.58,0,0,1-1.56,3.55,9,9,0,0,1-2.53,2.75,5.83,5.83,0,0,1-3.47,1.08,3.68,3.68,0,0,1-2.79-1.09A4.6,4.6,0,0,1,52.33,18.26ZM60.26,8a2.6,2.6,0,0,0-1.73.71A7.32,7.32,0,0,0,57,10.68a15.59,15.59,0,0,0-1.2,2.73,20.34,20.34,0,0,0-.8,3.14,18,18,0,0,0-.28,3.11,3.19,3.19,0,0,0,.41,1.84,1.32,1.32,0,0,0,1.18.59,2.65,2.65,0,0,0,1.73-.71,7.34,7.34,0,0,0,1.52-1.93,15.52,15.52,0,0,0,1.21-2.73,22.73,22.73,0,0,0,.78-3.13,17.82,17.82,0,0,0,.28-3.12,3.39,3.39,0,0,0-.39-1.86A1.35,1.35,0,0,0,60.26,8Z"/><path class="cls-1" d="M68.82,22.26H66.39l3.36-12a6.69,6.69,0,0,0,.18-.74,1.33,1.33,0,0,0,0-.7.54.54,0,0,0-.56-.3,1.4,1.4,0,0,0-1.1.6,9.09,9.09,0,0,0-1.06,2.26l-.36,1h-.54l.7-2A4.28,4.28,0,0,1,68.5,8a3.38,3.38,0,0,1,1.81-.56c.74,0,1.22.2,1.44.61a2.46,2.46,0,0,1,.18,1.51q-.14.9-.36,1.8Zm1.29-5.82A38.56,38.56,0,0,1,72,12.21a16.69,16.69,0,0,1,1.82-2.76,5.92,5.92,0,0,1,1.84-1.51,4.29,4.29,0,0,1,1.94-.46,2.19,2.19,0,0,1,1.81.63,2.25,2.25,0,0,1,.43,1.59,7.37,7.37,0,0,1-.39,2l-2.71,8.18a3.16,3.16,0,0,0-.21,1.25c0,.32.24.49.65.49a1.43,1.43,0,0,0,1-.59,7.23,7.23,0,0,0,1.11-2.27l.36-1h.54l-.7,2.05A4.18,4.18,0,0,1,78,22.09a3.65,3.65,0,0,1-1.82.56,1.93,1.93,0,0,1-1.77-.81,2,2,0,0,1-.19-1.32,9,9,0,0,1,.45-1.79l2.66-8a5.74,5.74,0,0,0,.23-.93,1.88,1.88,0,0,0,0-1c-.09-.29-.36-.44-.81-.44a2.81,2.81,0,0,0-1.81.91,12.68,12.68,0,0,0-2,2.54,29.68,29.68,0,0,0-2,3.8,39.77,39.77,0,0,0-1.66,4.74Z"/><path class="cls-1" d="M85.34,21.76a2.41,2.41,0,0,0,1.54-.86,12.37,12.37,0,0,0,1.77-2.31,24.15,24.15,0,0,0,1.65-3.3,24.48,24.48,0,0,0,1.2-3.84l-.47,3a20.72,20.72,0,0,1-3.21,6.32,4.45,4.45,0,0,1-3.29,1.85,2.23,2.23,0,0,1-2-.95,4.18,4.18,0,0,1-.66-2.44,10.71,10.71,0,0,1,.45-2.92,17.3,17.3,0,0,1,1.24-3.15,16.28,16.28,0,0,1,1.84-2.86,9.45,9.45,0,0,1,2.25-2.07,4.55,4.55,0,0,1,2.48-.78,1.64,1.64,0,0,1,1.5,1,4.28,4.28,0,0,1,.21,2.7l-.31.17a4.58,4.58,0,0,0-.2-2.39A1.33,1.33,0,0,0,90.07,8,2.71,2.71,0,0,0,88.16,9.1a12.37,12.37,0,0,0-1.87,2.84,20.92,20.92,0,0,0-1.4,3.78,15.57,15.57,0,0,0-.53,3.88,3.71,3.71,0,0,0,.27,1.68A.8.8,0,0,0,85.34,21.76ZM92.4,7.87c.45,0,.89-.06,1.34-.11A6.17,6.17,0,0,0,95,7.48l-3.5,12.37q0,.25-.15.66a1.33,1.33,0,0,0,0,.74c.07.23.26.34.57.34A1.5,1.5,0,0,0,93,21a7,7,0,0,0,1.06-2.24l.34-1h.53l-.7,2A4.69,4.69,0,0,1,92.71,22a3.05,3.05,0,0,1-1.71.61,1.65,1.65,0,0,1-1.54-.73,2.12,2.12,0,0,1-.2-1.49c.11-.57.24-1.15.39-1.73Z"/><path class="cls-1" d="M99.15,19.88A3,3,0,0,0,99,21.15a.54.54,0,0,0,.61.47,1.34,1.34,0,0,0,1-.63,8.33,8.33,0,0,0,1-2.23l.37-1h.53l-.7,2.05a5.44,5.44,0,0,1-.88,1.69,3.05,3.05,0,0,1-2.48,1.19,1.82,1.82,0,0,1-1.61-.6,2.18,2.18,0,0,1-.3-1.51A12.63,12.63,0,0,1,97,18.73l4.56-15.15a1.59,1.59,0,0,0,0-1.4c-.23-.29-.8-.44-1.71-.44l.19-.59a12.61,12.61,0,0,0,2.72-.32A12.35,12.35,0,0,0,105,0Z"/><path class="cls-1" d="M104,21.22a2.06,2.06,0,0,1,.64-1.49,2,2,0,0,1,1.43-.66,1.37,1.37,0,0,1,1,.42,1.45,1.45,0,0,1,.39,1,2.06,2.06,0,0,1-.65,1.49,2,2,0,0,1-1.45.64,1.34,1.34,0,0,1-1-.4A1.44,1.44,0,0,1,104,21.22Z"/><path class="cls-2" d="M111.31,12.35l1,0h2.58l.91,0a4.86,4.86,0,0,1,2.72.62,1.85,1.85,0,0,1,.9,1.58,1.9,1.9,0,0,1-.32,1,2.75,2.75,0,0,1-1,.91,4.48,4.48,0,0,1-1.7.55v0a6.05,6.05,0,0,1,2.19.47,2.9,2.9,0,0,1,1.19.92,1.92,1.92,0,0,1,.36,1.1,2.24,2.24,0,0,1-1.08,2,5.53,5.53,0,0,1-3,.68l-1,0c-.43,0-.94,0-1.54,0h-1.29c-.42,0-.76,0-1,0V22a2.59,2.59,0,0,0,.65-.11.49.49,0,0,0,.3-.34,2.87,2.87,0,0,0,.07-.75v-7a2.86,2.86,0,0,0-.07-.76.51.51,0,0,0-.3-.34,2,2,0,0,0-.65-.1Zm4.37.28q-.53,0-.66.24a2,2,0,0,0-.15,1v7a1.62,1.62,0,0,0,.18.94,1,1,0,0,0,.76.22,1.42,1.42,0,0,0,1.3-.64,3.27,3.27,0,0,0,.42-1.81,2.42,2.42,0,0,0-.53-1.67,2.24,2.24,0,0,0-1.74-.59h-1.11V17h1.21a1.25,1.25,0,0,0,.92-.32,1.63,1.63,0,0,0,.45-.84,5,5,0,0,0,.13-1.13,3.37,3.37,0,0,0-.28-1.56A.93.93,0,0,0,115.68,12.63Z"/><path class="cls-2" d="M125.62,12.35v.28a2.42,2.42,0,0,0-.72.1.56.56,0,0,0-.33.34,2.42,2.42,0,0,0-.08.76V21a2.34,2.34,0,0,0,.06.61.42.42,0,0,0,.23.27,1.57,1.57,0,0,0,.5.06h.58A1.81,1.81,0,0,0,127,21.5a4,4,0,0,0,1-1.19,5.08,5.08,0,0,0,.55-1.66h.32c0,.32,0,.74,0,1.26,0,.23,0,.56,0,1s0,.88.09,1.35l-1.61,0h-4.64l-1.69,0V22a2.59,2.59,0,0,0,.65-.11.48.48,0,0,0,.29-.34,2.43,2.43,0,0,0,.08-.75v-7a2.42,2.42,0,0,0-.08-.76.5.5,0,0,0-.29-.34,2,2,0,0,0-.65-.1v-.28l1,0h2.63Z"/><path class="cls-2" d="M134.82,12.15a5.77,5.77,0,0,1,2.69.6,4.36,4.36,0,0,1,1.78,1.73,5.55,5.55,0,0,1,.64,2.74,5.58,5.58,0,0,1-.65,2.74,4.67,4.67,0,0,1-1.82,1.84,5.28,5.28,0,0,1-2.66.66,5.64,5.64,0,0,1-2.68-.61,4.27,4.27,0,0,1-1.79-1.73,5.56,5.56,0,0,1-.64-2.73,5.54,5.54,0,0,1,.67-2.75,4.82,4.82,0,0,1,1.81-1.83A5.24,5.24,0,0,1,134.82,12.15Zm-.06.25a1.68,1.68,0,0,0-1.29.63,4.42,4.42,0,0,0-.84,1.74,9.83,9.83,0,0,0-.3,2.56,8.74,8.74,0,0,0,.34,2.59,4.17,4.17,0,0,0,.92,1.69,1.7,1.7,0,0,0,1.27.59,1.66,1.66,0,0,0,1.29-.63,4.17,4.17,0,0,0,.85-1.74,9.81,9.81,0,0,0,.3-2.55,8.94,8.94,0,0,0-.34-2.59A4.05,4.05,0,0,0,136,13,1.74,1.74,0,0,0,134.76,12.4Z"/><path class="cls-2" d="M146.28,12.15a4,4,0,0,1,1.59.27,5.12,5.12,0,0,1,1.1.64.44.44,0,0,0,.28.13c.18,0,.3-.28.35-.84h.32c0,.36,0,.81,0,1.34s0,1.23,0,2.1h-.32a7.42,7.42,0,0,0-.33-1.57,2.3,2.3,0,0,0-.85-1.12,2.64,2.64,0,0,0-.76-.41,2.76,2.76,0,0,0-.88-.15,2.09,2.09,0,0,0-1.32.43,3.3,3.3,0,0,0-.88,1.12,6,6,0,0,0-.48,1.54,9.76,9.76,0,0,0-.15,1.7,7.9,7.9,0,0,0,.65,3.68,2,2,0,0,0,1.82,1.17,1.49,1.49,0,0,0,.49-.07,1.13,1.13,0,0,0,.35-.16.69.69,0,0,0,.25-.29,1,1,0,0,0,.07-.42V19.85a3.33,3.33,0,0,0-.11-1,.7.7,0,0,0-.42-.45,2.63,2.63,0,0,0-.88-.14V18l.74,0h1.79l1.15,0,.87,0v.28a.56.56,0,0,0-.49.23,2.38,2.38,0,0,0-.12,1v2.77h-.28a1.8,1.8,0,0,0-.11-.52c-.06-.18-.17-.28-.32-.28a.94.94,0,0,0-.28.06,4.74,4.74,0,0,0-.57.25,6.63,6.63,0,0,1-1.12.48,3.58,3.58,0,0,1-1.21.21,5.11,5.11,0,0,1-3.83-1.34,5.13,5.13,0,0,1-1.29-3.72,5.48,5.48,0,0,1,.67-2.76,4.85,4.85,0,0,1,1.85-1.83A5.49,5.49,0,0,1,146.28,12.15Z"/></g></g></svg>