<svg xmlns="http://www.w3.org/2000/svg" viewBox="0 0 133.9 16.85"><defs><style>.cls-1{fill:#d8861a;}.cls-2{fill:#f2f2f2;}</style></defs><g id="Camada_2" data-name="Camada 2"><g id="Camada_1-2" data-name="Camada 1"><path class="cls-1" d="M11.74,5.94a7.73,7.73,0,0,1-.36,2.34,7.8,7.8,0,0,1-1,2.13,8.26,8.26,0,0,1-1.61,1.73A7.62,7.62,0,0,1,6.64,13.3a7,7,0,0,1-2.48.43l-1,0-1.2,0H.51l-.51,0,.05-.32a3.6,3.6,0,0,0,.81-.13.87.87,0,0,0,.47-.38A3.35,3.35,0,0,0,1.65,12L3.74,4.1A2,2,0,0,0,3.83,3c-.08-.19-.42-.29-1-.3l0-.32.55,0,.69,0h.72l.81,0h1.6a5.32,5.32,0,0,1,3.39.9A3.19,3.19,0,0,1,11.74,5.94ZM4,13.44a5.5,5.5,0,0,0,2.7-.64,5.73,5.73,0,0,0,1.95-1.75A8.14,8.14,0,0,0,9.81,8.51a11.2,11.2,0,0,0,.4-3,2.74,2.74,0,0,0-.8-2.14,4,4,0,0,0-2.63-.71A2.22,2.22,0,0,0,6,2.8a.93.93,0,0,0-.47.41,3.46,3.46,0,0,0-.32.85l-2.09,8a2.19,2.19,0,0,0-.11,1C3.09,13.33,3.4,13.44,4,13.44Z"/><path class="cls-1" d="M13.42,10.1c.6-.21,1.14-.41,1.63-.6a4.94,4.94,0,0,0,1.16-.64,3.41,3.41,0,0,0,.91-1.12,3.12,3.12,0,0,0,.34-1.44,1.68,1.68,0,0,0-.07-.59.22.22,0,0,0-.19-.13,1.72,1.72,0,0,0-1.09.54A6.21,6.21,0,0,0,15,7.56a10,10,0,0,0-.87,2,7.25,7.25,0,0,0-.34,2.19,1.84,1.84,0,0,0,.3,1.18,1,1,0,0,0,.8.36,2.62,2.62,0,0,0,1.22-.35,3.87,3.87,0,0,0,1.24-1.25l.26.13a4.9,4.9,0,0,1-.8,1,4.39,4.39,0,0,1-1.11.81,2.84,2.84,0,0,1-1.31.31,2.08,2.08,0,0,1-1.54-.57,2.26,2.26,0,0,1-.57-1.68,5.51,5.51,0,0,1,.26-1.55,8.92,8.92,0,0,1,1.85-3.29,5.65,5.65,0,0,1,1.46-1.15,3.5,3.5,0,0,1,1.71-.43,1.38,1.38,0,0,1,.84.26,1,1,0,0,1,.35.8,2.1,2.1,0,0,1-.38,1.19,4.29,4.29,0,0,1-1,1,8.48,8.48,0,0,1-1.34.8,14,14,0,0,1-1.41.61c-.45.17-.86.31-1.21.42Z"/><path class="cls-1" d="M19.89,13.49a1.16,1.16,0,0,0,.28.1,1.72,1.72,0,0,0,.45,0,1.64,1.64,0,0,0,1.16-.42A1.57,1.57,0,0,0,22.24,12a2.83,2.83,0,0,0-.18-1,5.3,5.3,0,0,0-.65-1.13c-.25-.34-.48-.69-.71-1a2.35,2.35,0,0,1-.33-1.27A2.06,2.06,0,0,1,21.1,5.9a2.62,2.62,0,0,1,1.75-.62,4,4,0,0,1,.91.11,1.54,1.54,0,0,1,.74.41,1.18,1.18,0,0,1,.3.87,1.13,1.13,0,0,1-.16.53.67.67,0,0,1-1,.12.63.63,0,0,1-.2-.49,1.33,1.33,0,0,1,.12-.55,2.27,2.27,0,0,1,.33-.52,1.46,1.46,0,0,0-.8-.19,1.34,1.34,0,0,0-1,.4,1.49,1.49,0,0,0-.4,1.12,1.6,1.6,0,0,0,.25.92l.71,1.08a8.89,8.89,0,0,1,.67,1.17,2.65,2.65,0,0,1,.27,1.18,2.28,2.28,0,0,1-.37,1.3,2.6,2.6,0,0,1-1,.89,2.92,2.92,0,0,1-1.38.32,3.28,3.28,0,0,1-1-.16,1.77,1.77,0,0,1-.81-.5,1.36,1.36,0,0,1-.31-.92,1,1,0,0,1,.14-.47.5.5,0,0,1,.49-.25.56.56,0,0,1,.54.31,1.47,1.47,0,0,1,.16.7,2,2,0,0,1,0,.45C19.93,13.25,19.91,13.37,19.89,13.49Z"/><path class="cls-1" d="M27.57,6.86c.22-.66.15-1-.23-1a.82.82,0,0,0-.65.4,5.8,5.8,0,0,0-.61,1.23l-.22.6h-.31L26,6.93A2.35,2.35,0,0,1,26.9,5.6,2.15,2.15,0,0,1,28,5.28a1,1,0,0,1,.91.35A1.31,1.31,0,0,1,29,6.5a5.07,5.07,0,0,1-.25,1L27,12.37a1.38,1.38,0,0,0-.1.73c0,.17.15.26.36.26a.8.8,0,0,0,.6-.35,4.64,4.64,0,0,0,.64-1.28l.23-.59h.3l-.41,1.16a2.56,2.56,0,0,1-.88,1.29,1.92,1.92,0,0,1-1.09.36,1.09,1.09,0,0,1-.93-.32,1.11,1.11,0,0,1-.18-.83,5.65,5.65,0,0,1,.28-1.09Zm.49-4.27a1.29,1.29,0,0,1,.43-.72,1.1,1.1,0,0,1,.74-.3.78.78,0,0,1,.65.3.89.89,0,0,1,.15.72,1.22,1.22,0,0,1-.42.72,1.16,1.16,0,0,1-.76.31.75.75,0,0,1-.63-.31A.86.86,0,0,1,28.06,2.59Z"/><path class="cls-1" d="M33.33,10.13h.4L32.22,11c-.44.23-.65.45-.65.67s.07.2.22.29a2.71,2.71,0,0,0,.74.27l1.17.3a8.29,8.29,0,0,1,.92.3,1.78,1.78,0,0,1,.64.42,1,1,0,0,1,.24.67,2,2,0,0,1-.26.91,3.42,3.42,0,0,1-.82,1,4.28,4.28,0,0,1-1.43.76,6.34,6.34,0,0,1-2.13.31,5.6,5.6,0,0,1-1.4-.15,1.94,1.94,0,0,1-.84-.43.83.83,0,0,1-.28-.62,1.14,1.14,0,0,1,.14-.54,2.26,2.26,0,0,1,.42-.54,3.69,3.69,0,0,1,.71-.5,5,5,0,0,1,1-.39l.11.24a1.87,1.87,0,0,0-.82.69,1.48,1.48,0,0,0-.22.77,1,1,0,0,0,.45.92,2.09,2.09,0,0,0,1.1.28,4,4,0,0,0,1.46-.29,3.75,3.75,0,0,0,1.23-.75,1.37,1.37,0,0,0,.5-1,.34.34,0,0,0-.16-.32,3,3,0,0,0-.5-.16l-2.45-.62a1.28,1.28,0,0,1-.62-.33.82.82,0,0,1-.24-.63,1.21,1.21,0,0,1,.22-.66,3,3,0,0,1,.85-.74A14.84,14.84,0,0,1,33.33,10.13Zm.88-4.85a2.57,2.57,0,0,1,1.53.42,1.61,1.61,0,0,1,.58,1.37,3,3,0,0,1-.43,1.52,3.53,3.53,0,0,1-1.22,1.24,3.38,3.38,0,0,1-1.85.49,2.51,2.51,0,0,1-1.48-.42,1.52,1.52,0,0,1-.6-1.32,3.37,3.37,0,0,1,.18-1,3.59,3.59,0,0,1,.58-1.09,3.1,3.1,0,0,1,1.07-.87A3.52,3.52,0,0,1,34.21,5.28Zm-.07.29a1.34,1.34,0,0,0-1,.45,2.87,2.87,0,0,0-.6,1.07,6.33,6.33,0,0,0-.29,1.18,5.46,5.46,0,0,0-.08.8,1,1,0,0,0,.23.74A.84.84,0,0,0,33,10a1.33,1.33,0,0,0,1-.37,2.41,2.41,0,0,0,.58-.91,4.27,4.27,0,0,0,.28-1.09,6.87,6.87,0,0,0,.08-.91,2,2,0,0,0-.15-.86A.58.58,0,0,0,34.14,5.57Zm1.2.54L35.06,6a2.29,2.29,0,0,1,.76-1A1.85,1.85,0,0,1,37,4.62a.93.93,0,0,1,.67.24.92.92,0,0,1,.26.72.87.87,0,0,1-.23.66.7.7,0,0,1-.48.21.8.8,0,0,1-.48-.17.72.72,0,0,1-.28-.54,1.75,1.75,0,0,1,.2-.94l.21,0a2.94,2.94,0,0,0-1,.53A3.06,3.06,0,0,0,35.34,6.11Z"/><path class="cls-1" d="M39,13.73H37.62l1.92-6.87a3.72,3.72,0,0,0,.1-.42.75.75,0,0,0,0-.4.31.31,0,0,0-.32-.17.79.79,0,0,0-.63.35,5.28,5.28,0,0,0-.61,1.28l-.21.6h-.3L38,6.93a2.51,2.51,0,0,1,.87-1.33,2,2,0,0,1,1-.32c.43,0,.71.12.83.35a1.36,1.36,0,0,1,.1.87c-.05.34-.12.68-.2,1Zm.73-3.33A23.35,23.35,0,0,1,40.83,8a9.07,9.07,0,0,1,1-1.57,3.42,3.42,0,0,1,1.05-.87A2.58,2.58,0,0,1,44,5.28a1.23,1.23,0,0,1,1,.36,1.29,1.29,0,0,1,.25.91,4.48,4.48,0,0,1-.22,1.15l-1.55,4.67a1.69,1.69,0,0,0-.12.71c0,.19.14.28.37.28a.82.82,0,0,0,.6-.34A4,4,0,0,0,45,11.73l.21-.59h.31l-.4,1.16a2.39,2.39,0,0,1-.9,1.33,2,2,0,0,1-1,.32,1.09,1.09,0,0,1-1-.46,1.12,1.12,0,0,1-.11-.75,6.1,6.1,0,0,1,.25-1l1.52-4.57A3,3,0,0,0,44,6.6,1.16,1.16,0,0,0,44,6c-.06-.16-.21-.25-.47-.25a1.56,1.56,0,0,0-1,.52,7.47,7.47,0,0,0-1.13,1.45,16.92,16.92,0,0,0-1.11,2.18,22.4,22.4,0,0,0-.95,2.7Z"/><path class="cls-1" d="M47.68,10.1q.9-.31,1.62-.6a4.75,4.75,0,0,0,1.16-.64,3.44,3.44,0,0,0,.92-1.12,3.12,3.12,0,0,0,.33-1.44,1.76,1.76,0,0,0-.06-.59.23.23,0,0,0-.19-.13,1.67,1.67,0,0,0-1.09.54,6,6,0,0,0-1.12,1.44,9.43,9.43,0,0,0-.87,2A7.26,7.26,0,0,0,48,11.74a1.84,1.84,0,0,0,.3,1.18,1,1,0,0,0,.8.36,2.59,2.59,0,0,0,1.22-.35,3.89,3.89,0,0,0,1.25-1.25l.25.13a4.84,4.84,0,0,1-.79,1,4.63,4.63,0,0,1-1.12.81,2.8,2.8,0,0,1-1.3.31,2.1,2.1,0,0,1-1.55-.57,2.3,2.3,0,0,1-.56-1.68,5.47,5.47,0,0,1,.25-1.55,9,9,0,0,1,.73-1.71,8.42,8.42,0,0,1,1.13-1.58,5.61,5.61,0,0,1,1.45-1.15,3.57,3.57,0,0,1,1.72-.43,1.38,1.38,0,0,1,.84.26.94.94,0,0,1,.34.8,2,2,0,0,1-.38,1.19,4.29,4.29,0,0,1-1,1,8.38,8.38,0,0,1-1.33.8,14,14,0,0,1-1.41.61c-.46.17-.86.31-1.22.42Z"/><path class="cls-1" d="M55.52,13.44a1.41,1.41,0,0,0,.9-.47,6.89,6.89,0,0,0,1-1.28,13.69,13.69,0,0,0,1-1.84,13,13,0,0,0,.69-2.14l-.24,1.73a15,15,0,0,1-1.24,2.64,4.65,4.65,0,0,1-1.25,1.43,2.29,2.29,0,0,1-1.32.44,1.5,1.5,0,0,1-1.2-.52,2.32,2.32,0,0,1-.46-1.59,6.09,6.09,0,0,1,.25-1.66,8.35,8.35,0,0,1,.71-1.75,7.94,7.94,0,0,1,1.11-1.57,5.53,5.53,0,0,1,1.43-1.15,3.41,3.41,0,0,1,1.67-.43,1,1,0,0,1,.69.28,1.17,1.17,0,0,1,.35.84l-.13.32a1.3,1.3,0,0,0-.32-.82.79.79,0,0,0-.58-.25,2.12,2.12,0,0,0-1.44.62,5.7,5.7,0,0,0-1.2,1.62A10.2,10.2,0,0,0,55.11,10a8,8,0,0,0-.3,2.07,2.36,2.36,0,0,0,.18,1A.56.56,0,0,0,55.52,13.44Zm3.58-1.07a2.09,2.09,0,0,0-.09.68c0,.21.15.31.38.31A.76.76,0,0,0,60,13a4.66,4.66,0,0,0,.58-1.27l.19-.59h.3l-.36,1.16a2.36,2.36,0,0,1-.84,1.32,2,2,0,0,1-1,.33.88.88,0,0,1-1-.91,3.18,3.18,0,0,1,0-.59c0-.23.1-.47.17-.74l2.3-8.65a1,1,0,0,0,0-.8c-.13-.17-.46-.26-1-.26l.1-.34A7.1,7.1,0,0,0,61,1.48,6.32,6.32,0,0,0,62.24,1Z"/><path class="cls-1" d="M67.52,12.74l-.77.61L66,14l-.24-.11a2.88,2.88,0,0,0,.19-.45l.12-.48,2.8-9.88a1,1,0,0,0,0-.8c-.12-.17-.44-.26-1-.26l.08-.34a7.1,7.1,0,0,0,1.55-.18A5.74,5.74,0,0,0,70.73,1Zm3.73-6.95a1.41,1.41,0,0,0-.94.59A8.13,8.13,0,0,0,69.25,8a19.89,19.89,0,0,0-1,2.25,21.1,21.1,0,0,0-.8,2.59l.28-1.73a17.74,17.74,0,0,1,2-4.46,2.57,2.57,0,0,1,2-1.33,1.5,1.5,0,0,1,1.21.56,2.68,2.68,0,0,1,.45,1.7,6.7,6.7,0,0,1-.2,1.58,8.45,8.45,0,0,1-.59,1.71,7.26,7.26,0,0,1-1,1.56,4.51,4.51,0,0,1-1.3,1.14,3.24,3.24,0,0,1-1.63.42,1.34,1.34,0,0,1-.86-.29,1.35,1.35,0,0,1-.5-.83l.12-.32a2,2,0,0,0,.52.83,1.08,1.08,0,0,0,.7.24,1.6,1.6,0,0,0,1-.42A4.45,4.45,0,0,0,70.62,12a9.36,9.36,0,0,0,.73-1.56,10.94,10.94,0,0,0,.48-1.71A8.44,8.44,0,0,0,72,7.18a2.15,2.15,0,0,0-.2-1A.62.62,0,0,0,71.25,5.79Z"/><path class="cls-1" d="M75,16a8.89,8.89,0,0,0,1.46-1,10.7,10.7,0,0,0,1.61-1.7,17.09,17.09,0,0,0,1.72-2.7,11.12,11.12,0,0,0,1.08-3,4.34,4.34,0,0,1-.82-.6,1.13,1.13,0,0,1-.4-.94.77.77,0,0,1,.82-.75.68.68,0,0,1,.63.33,1.92,1.92,0,0,1,.2,1A6.38,6.38,0,0,1,81,8.33a13.08,13.08,0,0,1-.73,1.89,15.81,15.81,0,0,1-1,1.85,18.06,18.06,0,0,1-1.13,1.61c-.17.21-.41.48-.71.8a9.36,9.36,0,0,1-1.06,1,6.91,6.91,0,0,1-1.38.88,4.92,4.92,0,0,1-.83.31,2.35,2.35,0,0,1-.57.09,1,1,0,0,1-.56-.17.56.56,0,0,1-.24-.49.63.63,0,0,1,.27-.54,1,1,0,0,1,.6-.18,1.31,1.31,0,0,1,.69.19A6.51,6.51,0,0,1,75,16Zm3.5-2.89-1.07,1.17L76.22,6.9A2.28,2.28,0,0,0,76,6.21.34.34,0,0,0,75.71,6c-.12,0-.25.09-.4.28a4.39,4.39,0,0,0-.54,1.19l-.21.59h-.31l.4-1.17a2.52,2.52,0,0,1,.84-1.3,1.79,1.79,0,0,1,1-.33.94.94,0,0,1,.76.31,2.38,2.38,0,0,1,.39,1.16Z"/><path class="cls-2" d="M98.22,0a1.23,1.23,0,0,1,.91.34,1.13,1.13,0,0,1,.32.78,1.43,1.43,0,0,1-.29.9,2.24,2.24,0,0,1-.81.62A4.61,4.61,0,0,1,97.2,3a8.76,8.76,0,0,1-1.52.12c-.51,0-1.09,0-1.71-.09l-1.88-.19a15.77,15.77,0,0,0-1.74-.1,8.69,8.69,0,0,0-1,.06,2,2,0,0,0-.77.21,1.27,1.27,0,0,1,.69.47,1.31,1.31,0,0,1,.27.83,1.4,1.4,0,0,1-.34.94,1.13,1.13,0,0,1-.91.4,1,1,0,0,1-.85-.37,1.39,1.39,0,0,1-.3-.89,1.84,1.84,0,0,1,.22-.83,1.64,1.64,0,0,1,.82-.72,3.46,3.46,0,0,1,.8-.28,5.8,5.8,0,0,1,.79-.09l.56,0c.66,0,1.3,0,1.93.09l1.85.18c.6,0,1.19.08,1.75.08a7.63,7.63,0,0,0,1.05-.06,4.45,4.45,0,0,0,.78-.19l0,.13a1.8,1.8,0,0,1-.44-.55,1.52,1.52,0,0,1-.21-.8A1.31,1.31,0,0,1,97.3.37,1.19,1.19,0,0,1,98.22,0ZM92.3,2.7l.87.08.73.07.88.08L92.4,11.87c-.15.58-.15,1,0,1.18s.55.33,1.19.36l-.07.32c-.33,0-.76,0-1.29,0H89c-.5,0-.91,0-1.22,0l.06-.32a4,4,0,0,0,1.07-.17,1.16,1.16,0,0,0,.6-.46,2.69,2.69,0,0,0,.36-.91Z"/><path class="cls-2" d="M101.82,8.11A26.75,26.75,0,0,1,100.69,11a8.9,8.9,0,0,1-1.07,1.77,3.31,3.31,0,0,1-1.06.9,2.69,2.69,0,0,1-1.15.26,1.31,1.31,0,0,1-1.32-.64,2.44,2.44,0,0,1,.08-1.77l1.56-4.72a1,1,0,0,0,.07-.64A.29.29,0,0,0,97.52,6a.71.71,0,0,0-.47.23,2.73,2.73,0,0,0-.54,1l-.29.77h-.3l.4-1.17a2.24,2.24,0,0,1,1-1.33,2.56,2.56,0,0,1,1.18-.32,1.61,1.61,0,0,1,1.07.31,1.19,1.19,0,0,1,.39.88,3.9,3.9,0,0,1-.23,1.36L98.25,12.1c-.23.7-.18,1.05.16,1.05s.55-.2.88-.61a10.45,10.45,0,0,0,1-1.67,24.67,24.67,0,0,0,1-2.37,26.86,26.86,0,0,0,.86-2.76Zm.79,4.26a1.75,1.75,0,0,0-.1.6c0,.13.1.2.27.2a.76.76,0,0,0,.54-.28,3.2,3.2,0,0,0,.49-1l.3-.81h.3L104,12.3a2.27,2.27,0,0,1-.91,1.3,2.45,2.45,0,0,1-1.23.35,1.76,1.76,0,0,1-.73-.14,1.13,1.13,0,0,1-.46-.4,1.41,1.41,0,0,1-.13-.73,4.79,4.79,0,0,1,.15-1l1.62-6.25c.43,0,.85,0,1.24-.07a6.82,6.82,0,0,0,1.08-.16Z"/><path class="cls-2" d="M107.6,13.73h-2.26l1.94-6.91a1.87,1.87,0,0,0,.1-.41.44.44,0,0,0,0-.29.25.25,0,0,0-.24-.1.68.68,0,0,0-.52.26,3.61,3.61,0,0,0-.5,1l-.31.82h-.3l.43-1.22a2.65,2.65,0,0,1,.84-1.28A2.13,2.13,0,0,1,108,5.23a1.39,1.39,0,0,1,1.07.35,1.25,1.25,0,0,1,.3.86,4,4,0,0,1-.13,1Zm.51-2.71c.42-1.16.8-2.12,1.16-2.87a9,9,0,0,1,1.06-1.77,3.14,3.14,0,0,1,1.06-.89,2.71,2.71,0,0,1,1.17-.26,1.48,1.48,0,0,1,1.1.34,1.18,1.18,0,0,1,.34.89,3.88,3.88,0,0,1-.21,1.19l-1.57,4.72a1,1,0,0,0-.08.62.3.3,0,0,0,.29.18.74.74,0,0,0,.46-.23,2.78,2.78,0,0,0,.55-1l.29-.76h.3l-.4,1.16a2.18,2.18,0,0,1-1,1.33,2.47,2.47,0,0,1-1.18.32,1.42,1.42,0,0,1-1.28-.53,1.34,1.34,0,0,1-.2-.8,4,4,0,0,1,.24-1.21l1.44-4.32a2,2,0,0,0,.13-.5,1,1,0,0,0,0-.4.27.27,0,0,0-.28-.16c-.25,0-.55.2-.88.61a9.9,9.9,0,0,0-1,1.63,22.26,22.26,0,0,0-1,2.32c-.33.87-.62,1.76-.88,2.67Z"/><path class="cls-2" d="M117,6.82c.18-.54.12-.8-.18-.8a.69.69,0,0,0-.53.28,3.65,3.65,0,0,0-.49,1l-.32.82h-.31l.45-1.22a2.43,2.43,0,0,1,.93-1.3,2.53,2.53,0,0,1,1.3-.35,1.4,1.4,0,0,1,1.07.35,1.34,1.34,0,0,1,.33.87,3,3,0,0,1-.17,1l-1.68,4.9a1,1,0,0,0-.07.61.27.27,0,0,0,.29.19.71.71,0,0,0,.46-.24,3.14,3.14,0,0,0,.55-1l.29-.76h.3l-.41,1.16a2.27,2.27,0,0,1-1,1.32,2.51,2.51,0,0,1-1.21.33,1.6,1.6,0,0,1-1-.3,1.17,1.17,0,0,1-.39-.88,3.59,3.59,0,0,1,.22-1.36Zm.61-4a1.31,1.31,0,0,1,.5-1,1.75,1.75,0,0,1,1.13-.37,1.29,1.29,0,0,1,.9.28.92.92,0,0,1,.28.78,1.34,1.34,0,0,1-.51,1,1.76,1.76,0,0,1-1.15.39,1.21,1.21,0,0,1-.87-.28A.85.85,0,0,1,117.57,2.78Z"/><path class="cls-2" d="M125.61,5.55a1.75,1.75,0,0,0-1.16.51,4.63,4.63,0,0,0-1,1.35,8.53,8.53,0,0,0-.72,1.9,8.36,8.36,0,0,0-.28,2.18,1.83,1.83,0,0,0,.34,1.22,1.13,1.13,0,0,0,.88.38,2,2,0,0,0,1-.31,3.51,3.51,0,0,0,1.07-1.1l.32.13a5.4,5.4,0,0,1-.82,1,4.37,4.37,0,0,1-1.17.81,3.44,3.44,0,0,1-1.5.31,2.79,2.79,0,0,1-1.84-.6,2.28,2.28,0,0,1-.72-1.86,6.14,6.14,0,0,1,.39-2.08,7.44,7.44,0,0,1,1.09-2,5.91,5.91,0,0,1,1.72-1.55,4.46,4.46,0,0,1,2.26-.59,2.19,2.19,0,0,1,1.42.44,1.38,1.38,0,0,1,.53,1.1,1.94,1.94,0,0,1-.77,1.51,1.31,1.31,0,0,1-.81.26.93.93,0,0,1-.65-.24.89.89,0,0,1-.26-.68,1.56,1.56,0,0,1,.44-1.13,2,2,0,0,1,1-.62.92.92,0,0,0-.31-.24A1.22,1.22,0,0,0,125.61,5.55Z"/><path class="cls-2" d="M128.48,13.5a.62.62,0,0,0,.27.09,1.69,1.69,0,0,0,.35,0,1.28,1.28,0,0,0,1.35-1.38,2.87,2.87,0,0,0-.23-1.08,6.54,6.54,0,0,0-.67-1.21c-.25-.38-.47-.75-.68-1.12a2.44,2.44,0,0,1-.31-1.25,2.1,2.1,0,0,1,.77-1.68,3.12,3.12,0,0,1,2.14-.67,4.3,4.3,0,0,1,1.14.15,2,2,0,0,1,.92.49,1.35,1.35,0,0,1,.37,1,1.53,1.53,0,0,1-.24.78.79.79,0,0,1-.74.4.77.77,0,0,1-.63-.3,1.16,1.16,0,0,1-.24-.77,1.94,1.94,0,0,1,.15-.78,1.92,1.92,0,0,1,.34-.55,1,1,0,0,0-.56-.13,1.19,1.19,0,0,0-.9.35,1.48,1.48,0,0,0-.35,1,2,2,0,0,0,.29,1L131.69,9a11,11,0,0,1,.72,1.35,3,3,0,0,1,.23,1.13,2.2,2.2,0,0,1-.36,1.24,2.45,2.45,0,0,1-1,.88,3.67,3.67,0,0,1-1.61.33,4.83,4.83,0,0,1-1.28-.17,2.1,2.1,0,0,1-1-.59A1.51,1.51,0,0,1,127,12.1a1.44,1.44,0,0,1,.23-.8.76.76,0,0,1,.67-.36.77.77,0,0,1,.67.36,1.58,1.58,0,0,1,.24.89,2.19,2.19,0,0,1-.12.75Z"/></g></g></svg>