<svg id="Camada_1" data-name="Camada 1" xmlns="http://www.w3.org/2000/svg" xmlns:xlink="http://www.w3.org/1999/xlink" viewBox="0 0 16 16"><defs><style>.cls-1{fill:none;}.cls-2{clip-path:url(#clip-path);}.cls-3{clip-path:url(#clip-path-2);}.cls-4{fill:#203445;}.cls-5{fill:#ffa943;} @media (prefers-color-scheme: dark){.cls-4{fill:#F2F2F2;}}</style><clipPath id="clip-path"><rect class="cls-1" x="-79.93" y="174.92" width="1920" height="465"/></clipPath><clipPath id="clip-path-2"><rect class="cls-1" x="-2223.93" y="174.92" width="1920" height="750"/></clipPath><image id="image" width="1920" height="1280" xlink:href="../pexels-ryutaro-tsukata-5220130.jpg"/></defs><g class="cls-2"><use transform="translate(-90.93 -471.08) scale(1.3)" xlink:href="#image"/></g><g class="cls-3"><use transform="translate(-2234.93 -471.08) scale(1.3)" xlink:href="#image"/></g><path class="cls-4" d="M4.05,7.06l.08-.34h.76A5.69,5.69,0,0,0,7,6.38a3.51,3.51,0,0,0,1.38-1A4,4,0,0,0,9.14,4a6.63,6.63,0,0,0,.23-1.76A2,2,0,0,0,8.88.73,2.34,2.34,0,0,0,7.23.25a1.45,1.45,0,0,0-1,.3A2.72,2.72,0,0,0,5.65,1.7L3.43,10.06a4.34,4.34,0,0,0-.15.83.45.45,0,0,0,.22.46,2.22,2.22,0,0,0,.92.16l-.07.33-.94,0H1l-.95,0,.07-.33A4,4,0,0,0,1,11.37a.85.85,0,0,0,.51-.4,3.49,3.49,0,0,0,.34-.91L4.1,1.7A2.89,2.89,0,0,0,4.24.85.47.47,0,0,0,4,.4,1.83,1.83,0,0,0,3.11.25l.08-.33.93,0L5.26,0,6.48,0l1.24,0a3.88,3.88,0,0,1,2.53.7,2.3,2.3,0,0,1,.82,1.85,3.72,3.72,0,0,1-.8,2.35A5.29,5.29,0,0,1,8,6.46a8.52,8.52,0,0,1-3.32.6Z"/><path class="cls-5" d="M6.07,4.93,7.2,5h2.89l1,0a5.46,5.46,0,0,1,3.05.69,2.08,2.08,0,0,1,1,1.77,2.11,2.11,0,0,1-.36,1.12,3.14,3.14,0,0,1-1.11,1,5,5,0,0,1-1.9.62v0a6.92,6.92,0,0,1,2.45.53,3.1,3.1,0,0,1,1.32,1A2.19,2.19,0,0,1,16,13a2.49,2.49,0,0,1-1.21,2.27,6.11,6.11,0,0,1-3.3.76l-1.09,0c-.48,0-1,0-1.72,0H7.2L6.07,16v-.31a2.59,2.59,0,0,0,.73-.13.56.56,0,0,0,.33-.37,3,3,0,0,0,.09-.85V6.59a3,3,0,0,0-.09-.86.58.58,0,0,0-.33-.37,2.07,2.07,0,0,0-.73-.12ZM11,5.24c-.38,0-.63.09-.74.27a2.3,2.3,0,0,0-.16,1.08v7.75a1.78,1.78,0,0,0,.2,1.06,1.11,1.11,0,0,0,.84.24,1.64,1.64,0,0,0,1.47-.71,3.81,3.81,0,0,0,.46-2A2.71,2.71,0,0,0,12.43,11a2.49,2.49,0,0,0-1.95-.65H9.25v-.27h1.34a1.45,1.45,0,0,0,1-.35,2,2,0,0,0,.5-.94,5.59,5.59,0,0,0,.14-1.26A3.78,3.78,0,0,0,12,5.83,1.05,1.05,0,0,0,11,5.24Z"/></svg>